<?xml version="1.0" standalone="no"?>
<svg xmlns:xlink="http://www.w3.org/1999/xlink" id="wave" style="transform:rotate(0deg); transition: 0.3s" viewBox="0 0 1440 490" version="1.1" xmlns="http://www.w3.org/2000/svg"><defs><linearGradient id="sw-gradient-0" x1="0" x2="0" y1="1" y2="0"><stop stop-color="rgba(179, 211, 242, 1)" offset="0%"/><stop stop-color="rgba(63.772, 149.295, 232.147, 1)" offset="100%"/></linearGradient></defs><path style="transform:translate(0, 0px); opacity:1" fill="url(#sw-gradient-0)" d="M0,49L17.1,106.2C34.3,163,69,278,103,277.7C137.1,278,171,163,206,138.8C240,114,274,180,309,187.8C342.9,196,377,147,411,171.5C445.7,196,480,294,514,351.2C548.6,408,583,425,617,367.5C651.4,310,686,180,720,155.2C754.3,131,789,212,823,236.8C857.1,261,891,229,926,236.8C960,245,994,294,1029,269.5C1062.9,245,1097,147,1131,89.8C1165.7,33,1200,16,1234,49C1268.6,82,1303,163,1337,228.7C1371.4,294,1406,343,1440,310.3C1474.3,278,1509,163,1543,155.2C1577.1,147,1611,245,1646,261.3C1680,278,1714,212,1749,212.3C1782.9,212,1817,278,1851,310.3C1885.7,343,1920,343,1954,302.2C1988.6,261,2023,180,2057,122.5C2091.4,65,2126,33,2160,65.3C2194.3,98,2229,196,2263,236.8C2297.1,278,2331,261,2366,269.5C2400,278,2434,310,2451,326.7L2468.6,343L2468.6,490L2451.4,490C2434.3,490,2400,490,2366,490C2331.4,490,2297,490,2263,490C2228.6,490,2194,490,2160,490C2125.7,490,2091,490,2057,490C2022.9,490,1989,490,1954,490C1920,490,1886,490,1851,490C1817.1,490,1783,490,1749,490C1714.3,490,1680,490,1646,490C1611.4,490,1577,490,1543,490C1508.6,490,1474,490,1440,490C1405.7,490,1371,490,1337,490C1302.9,490,1269,490,1234,490C1200,490,1166,490,1131,490C1097.1,490,1063,490,1029,490C994.3,490,960,490,926,490C891.4,490,857,490,823,490C788.6,490,754,490,720,490C685.7,490,651,490,617,490C582.9,490,549,490,514,490C480,490,446,490,411,490C377.1,490,343,490,309,490C274.3,490,240,490,206,490C171.4,490,137,490,103,490C68.6,490,34,490,17,490L0,490Z"/></svg>